<svg x="0" y="0" width="2660" height="2660" viewBox="0 0 2660 2660" version="1.1" xmlns="http://www.w3.org/2000/svg" style="display: block;margin-left: auto;margin-right: auto;">
<defs>
<clipPath id="c_1"><path d="M0,0H2660V2660H0Z"/></clipPath>
<style>

.g0{fill:#231F20;}
.g1{fill:#E79023;}
.g2{fill:#000;}
.g3{fill:#E04B40;}
.g4{fill:#070108;}

</style>

</defs>
<path d="M0 0V2660H2660V0Z" fill="#FFFFFF" stroke="none"/>
<g clip-path="url(#c_1)">
<path d="M415 2245.4c234.2 234.2 557.8 379.1 915.2 379.1c357.4 0 681-144.9 915.2-379.1c234.2-234.2 379.1-557.8 379.1-915.2c0-357.4-144.9-681-379.1-915.2C2011.2 180.8 1687.6 35.9 1330.2 35.9C972.8 35.9 649.2 180.8 415 415C180.8 649.2 35.9 972.8 35.9 1330.2c0 357.4 144.9 681 379.1 915.2Zm915.2 413.5c-353.6 0-689.5-139.2-939.5-389.2c-250-250-389.2-585.9-389.2-939.5c.1-353.6 139.2-689.5 389.2-939.5c250-250 585.9-389.2 939.5-389.2c353.6 0 689.5 139.2 939.5 389.2c250 250 389.2 585.9 389.2 939.5c0 353.6-139.2 689.5-389.2 939.5c-250 250-585.9 389.2-939.5 389.2Z" class="g0"/>
<path d="M2279.1 1898.7c-4.1 6.9-13.1 9.1-19.9 5c-6.9-4.1-9.2-13.1-5.1-20c49.4-82.2 88.2-171.5 114.3-266.1c25.3-91.4 38.8-187.7 38.8-287.4c0-99.7-13.5-196.1-38.8-287.4c-26.1-94.6-64.9-183.9-114.3-266.2c-4.1-6.8-1.8-15.8 5.1-19.9c6.8-4.1 15.8-1.9 19.9 5c50.7 84.4 90.5 176.2 117.3 273.3c26.1 94.1 40 193.1 40 295.2c0 102.1-13.9 201.1-40 295.1c-26.8 97.2-66.6 188.9-117.3 273.4Z" class="g1"/>
<path d="M381.3 761.7c4.1-6.9 13-9.1 19.9-5c6.9 4.1 9.1 13.1 5 19.9c-49.3 82.3-88.1 171.6-114.2 266.2c-25.3 91.4-38.8 187.7-38.8 287.4c0 99.7 13.5 196 38.8 287.4c26.1 94.5 64.8 183.9 114.2 266.1c4.1 6.9 1.9 15.9-5 20c-6.9 4.1-15.8 1.9-19.9-5c-50.7-84.5-90.5-176.3-117.4-273.4c-26-94-39.9-193-39.9-295.1c0-102.1 13.9-201.1 39.9-295.1c26.9-97.2 66.7-188.9 117.4-273.4Z" class="g1"/>
<path d="M529.8 620.3l16.7-17.5l157.2 22.1l-42.8 44.8l-99.4-21.5l-1.1 1.2ZM586.4 748L433.6 602.4l33.3-34.9L619.6 713.1ZM571.1 600.2l-26.8-3.9l-16 16.9l-20.6-88.5l41.5-43.6Zm116.1-27.9L589.6 448.1l37.9-29.8l97.6 124.2Zm2.7 5.5l107.5-84.5l29.1 37L719 614.8ZM939.5 291.3l-114.9 52l-18.1-39.9l128.2-57.9l9.4 20.9Zm-47.9 28.8l45.5-20.6l-1.7 7.9c-8.9 42.8 .5 95 28.3 156.5l-43.9 19.9c-26.6-58.9-36-113.5-28.2-163.7Zm315.1 44.3l-8.1-45.5l47.4-8.4l14.1 78.7Zm40.7-60.2l-87 15.5l-7.4-41.6l87-15.5Zm-56.1-55.8c-10.1-9.3-22.6-12.7-37.7-10c-11.3 2-20.2 8.8-26.6 20.4c-6.3 11.7-8.8 25.1-7.5 40.4l-49 8.7c-3.7-27.9 1.7-53 16.2-75.3c14.3-22.3 33.9-35.7 58.7-40.1c30.3-5.4 55.9 1.2 76.6 19.8Zm-71.1 57.2c3 16.3 9.8 29.6 20.4 39.6c10.7 10.1 22 14.1 34.2 11.9c9.2-1.6 16.8-5.2 22.6-10.6l3.9 22.2l27.2 12.7c-12.7 11-27.9 18.1-45.6 21.2c-25.6 4.6-49.2-1.8-71-19c-21.6-17.2-35.1-40.3-40.3-69.3ZM1406 180.7h.4l67 212.7l-51.5-1.3l-43.5-137.3Zm-68.1 165.9l-16 43l-51-1.3l77.6-209.1l51.1 1.3l-46.2 124.3l34.6 .8l13.7 42.6Zm246.6-52.7c20.6 4.8 38 15.6 52.2 32.3c14.1 16.7 19.3 32.8 15.8 48.2l-14.3 61.9l-47-10.9l12.8-55.2c1.9-8.1 .6-15.7-3.8-22.7c-4.5-7.1-10.7-11.6-18.8-13.5l-17.6-4l8.9-38.8Zm-93.1 108.5l35.8-155.1l47 10.9l-35.8 155Zm149.1-81.1c-9.4-10.4-20.2-18.7-32.2-24.8c9.1-2.5 14.6-8.1 16.6-16.8c.9-4.1 .5-8-1.4-11.6c-1.9-3.6-4.6-5.8-8-6.6l-88.1-20.3l10.3-44.7l89.2 20.6c16.3 3.8 28.8 12.8 37.6 27.1c8.7 14.2 11.3 29.3 7.6 45.3c-3.6 15.6-14.1 26.2-31.6 31.8Zm217-16.2l.4 .1l-21 222.1L1790 506.1l13.3-143.5ZM1730.3 431.5l-31.5 33.4l-46.5-21l152.8-162.5l46.6 21.1L1760.8 399l31.6 14.2l-3.9 44.6Zm219.3 148.8l28.5-36.4l37.9 29.8l-49.4 62.9Zm72.1-9.7l-69.6-54.7l26.1-33.2l69.6 54.6Zm4.3-79c.2-13.8-5.7-25.4-17.7-34.8c-9.1-7.1-20.1-9.2-32.9-6.3c-13 3-24.6 10.1-35.2 21.3L1901.1 441c18.4-21.3 40.8-34 67-38.1c26.2-4.1 49.2 1.7 69 17.2c24.2 19 36.3 42.5 36.2 70.4Zm-90.1-15c-10.2 13-15.5 26.9-16 41.6c-.4 14.6 4.2 25.8 13.9 33.4c7.4 5.8 15.1 9 22.9 9.8l-13.9 17.7l8.6 28.7c-16.6-2.1-32-8.8-46.2-19.9c-20.4-16-31.4-37.9-33-65.6c-1.6-27.6 6.7-53 24.9-76.2Zm90.3 140.2l79.3-68.7l31.5 36.4l-79.3 68.7Zm93.8-9.5l43.4 50.1l-35.5 30.8L2084.5 638Zm-99.2 12.5l89.5 103.3l-35.5 30.8l-89.5-103.3Zm123.9-107.4l89.5 103.4l-35.5 30.7l-89.5-103.3Z" class="g2"/>
<path d="M556.8 1958.4l27.9 32.2c7.5 8.7 12.7 16 15.3 21.9c2.7 5.8 3.8 11 3.3 15.6c-.6 4.6-2.3 8.9-5.3 13c-2.9 4-8.2 9.3-15.9 16l-10.7 9.2c-7.9 6.8-14.3 11-19.3 12.4c-5 1.6-10.3 1-16-1.7c-5.6-2.6-11.5-7.4-17.5-14.4l-7.5-8.6l-49.6 43l-27.7-32.1Zm6.7 50.2l-31.3 27.2c.7 .9 1.4 1.7 1.9 2.4c2.6 2.9 5.1 4.3 7.5 4.2c2.4-.2 5.9-2.2 10.5-6.1l10.1-8.8c4.2-3.7 6.4-6.7 6.5-9.1c.2-2.4-1.6-5.7-5.2-9.8Zm65.7 29.5l21.7 20.6c14.4 13.8 23.7 23.7 27.7 29.7c4.1 6 5.5 12.8 4.4 20.5c-1.2 7.6-6.5 16.5-16.1 26.5c-8.7 9.1-15.7 14.2-21 15.2c-5.3 1-11.6-1.4-18.9-7.2c4.6 7.3 6.8 13.2 6.5 17.7c-.3 4.5-1.3 8.1-2.8 10.7c-1.5 2.6-6.7 8.6-15.8 18.1L585.2 2221l-28.4-27.1l37.4-39.2c6-6.3 9.2-10.6 9.6-13.1c.5-2.4-1.4-5.6-5.5-9.6l-50.7 53.1l-30.7-29.2Zm11.5 49.3l-25 26.2c3.4 3.3 6.3 5.1 8.5 5.5c2.3 .3 5.9-2.1 10.9-7.3l6.2-6.5c3.5-3.7 5.2-6.8 5-9.2c-.2-2.4-2.1-5.3-5.6-8.7Zm67.7 23.3l57.5 40.9l-18.8 26.5l-23-16.3l-18 25.3l21.5 15.3l-17.9 25.1l-21.5-15.2l-20.7 29.2l25.3 18L674 2286l-59.9-42.6Zm185.5 118.4l-81.1 141.1l-32.1-18.5l54.7-95.3l-67.6 87.9l-22.5-12.9l40.1-100.8l-53.6 93l-32.1-18.4l81.1-141.1l47.4 27.2c-3.5 9.3-7.8 20.2-12.9 32.6l-15.4 38.8l46.3-61.1Zm58.8 24.6L885.6 2402L847 2384.6l67-148.3Zm110.3 38.9l-34.9 103.1c-4 11.6-7.1 19.7-9.5 24.2c-2.4 4.5-6.3 8.6-11.7 12.3c-5.4 3.7-11.6 5.8-18.6 6.3c-7 .5-14.7-.6-23-3.4c-9.2-3.1-16.8-7.4-22.7-12.8c-6.1-5.5-10-11.2-11.8-17.3c-1.9-6.1-2.2-11.9-1-17.6c1.2-5.6 4.8-17.2 10.7-34.5l30.8-91.3l40.2 13.6l-39.1 115.6c-2.3 6.7-3.4 11.2-3.3 13.3c.1 2.1 1.2 3.5 3.4 4.3c2.5 .8 4.4 .3 5.8-1.5c1.4-1.8 3.5-6.6 6-14.2l38.5-113.7Zm139.7 28l-28.6 160.3l-36.5-6.5l19.2-108.2l-33.7 105.6l-25.6-4.6l3.6-108.5l-19 105.8l-36.4-6.6l28.6-160.2l53.8 9.6c-.2 10-.6 21.7-1.1 35.1l-1.4 41.7l22.9-73.1Zm164.5 8.4l-2.8 108.8c-.3 12.3-.9 21-1.9 25.9c-.9 5-3.4 10.1-7.5 15.2c-4.1 5.2-9.4 9-15.9 11.6c-6.5 2.5-14.2 3.7-22.9 3.5c-9.7-.2-18.3-2.1-25.6-5.5c-7.4-3.4-12.8-7.7-16.4-13c-3.5-5.2-5.5-10.7-6.1-16.5c-.5-5.7-.5-17.8-.1-36.1l2.5-96.4l42.3 1.1l-3 122.1c-.2 7.1 0 11.6 .8 13.6c.7 2 2.2 3 4.5 3.1c2.6 .1 4.3-1 5.1-3.1c.8-2.2 1.3-7.3 1.5-15.4l3.1-120Zm112.9 40l-39.2 2.9l-1-12c-.4-5.6-1.2-9.1-2.3-10.6c-1.1-1.4-2.8-2.1-5.1-1.9c-2.5 .2-4.4 1.4-5.5 3.6c-1.2 2.1-1.6 5.3-1.3 9.5c.5 5.4 1.5 9.4 3.2 12c1.6 2.6 5.9 5.6 12.7 9c19.5 9.8 32 18.1 37.4 24.9c5.5 6.7 8.8 18.1 10 33.9c.9 11.6 .1 20.2-2.1 25.9c-2.3 5.7-7.2 10.7-14.7 15c-7.4 4.3-16.3 6.8-26.5 7.6c-11.3 .8-21.1-.6-29.4-4.2c-8.3-3.7-13.9-8.8-16.9-15.2c-3-6.4-4.9-15.7-5.9-27.9l-.8-10.6l39.2-3l1.5 19.8c.5 6 1.3 9.9 2.5 11.6c1.3 1.6 3.3 2.3 6.1 2.1c2.8-.2 4.8-1.4 6-3.8c1.2-2.3 1.6-5.6 1.3-9.9c-.7-9.6-2.5-15.7-5.3-18.4c-2.9-2.8-9.9-7.2-20.9-13.3c-11-6.1-18.3-10.7-21.9-13.6c-3.6-2.9-6.8-7-9.5-12.3c-2.6-5.4-4.3-12.4-4.9-21c-1-12.4-.1-21.7 2.7-27.6c2.7-6 7.5-10.9 14.3-14.7c6.8-3.8 15.2-6 25.2-6.8c11-.8 20.4 .3 28.4 3.2c8 3 13.4 7 16.3 12.2c2.9 5.2 4.9 14.2 5.9 27.1Zm16.2-54.6l69.5-12.4l5.7 32l-27.8 4.9l5.5 30.6l25.9-4.6l5.4 30.4l-25.9 4.6l6.3 35.3l30.6-5.5l5.7 32l-72.3 12.9Zm87.2-18.3l30.4-8.7c19.7-5.5 33.2-8.4 40.7-8.6c7.4-.1 13.5 1.3 18.3 4.4c4.8 3.1 8.3 7.1 10.7 11.9c2.3 4.8 5.6 14.6 9.8 29.4l15.6 54.9c4 14 6 23.6 6 28.7c0 5.1-1.2 9.5-3.7 13.1c-2.6 3.6-6.1 6.6-10.7 9.1c-4.5 2.4-11.6 5-21.3 7.8l-51.3 14.5Zm48.4 15.1l29.3 103.1c5.7-1.6 8.9-3.8 9.6-6.5c.7-2.8-.5-9.4-3.5-19.8l-17.2-60.9c-2.1-7.1-3.6-11.6-4.6-13.5c-1-1.9-2.4-3-4.3-3.5c-1.9-.5-5-.1-9.3 1.1Zm101.3-65.5l37.5-19.2c11.8-6.1 21.2-9.7 28.3-11c7-1.3 13.9-.1 20.5 3.6c6.7 3.8 13.2 11.9 19.6 24.4c4.3 8.4 6 15 5 19.7c-.9 4.7-4.8 9.9-11.7 15.7c9.7-2.4 17.3-2.2 22.8 .7c5.4 3 10.6 9.2 15.4 18.7l6.9 13.4c5 9.8 7.6 17.6 7.8 23.5c.1 5.8-1.7 10.9-5.7 15.1c-4 4.3-13.6 10.2-28.7 18l-43.5 22.3Zm50.4 5.4l16.5 32.2c1.5-.8 2.7-1.5 3.6-1.9c3.6-1.9 5.5-4 5.5-6.3c.1-2.3-2.1-7.8-6.5-16.4c-2.3-4.5-4.3-7.5-6.1-8.9c-1.7-1.4-3.4-2-5-1.8c-1.5 .2-4.2 1.2-8 3.1Zm28 54.8l20.8 40.6c5.1-2.8 8-5.3 8.7-7.6c.7-2.2-.5-6.3-3.5-12.1l-7-13.6c-3.2-6.2-5.7-9.6-7.7-10.3c-1.9-.7-5.7 .3-11.3 3Zm61.7-137.7l87.8 137l-35.7 22.9l-87.8-137Zm98.4-72.2l26.4 72.8l76 53.8l-34.3 27l-56.6-44.3l43.1 54.9l-33.3 26.2l-100.6-128l33.3-26.2l39.1 49.7l-24.1-61.4Zm11.2-8.4l51.1-48.7l22.4 23.5l-20.4 19.5l21.4 22.5l19.1-18.2l21.3 22.3l-19.1 18.2l24.7 25.9l22.5-21.4l22.5 23.5l-53.2 50.7Zm161.6-96.8l-25.7 29.7l-9.1-7.9c-4.3-3.7-7.3-5.7-9.1-5.9c-1.9-.3-3.5 .5-5 2.2c-1.7 1.9-2.2 4.1-1.4 6.4c.7 2.4 2.6 4.9 5.8 7.7c4.1 3.5 7.7 5.6 10.7 6.3c3 .7 8.1-.2 15.3-2.5c20.8-6.9 35.5-9.8 44.1-8.8c8.7 1 19 6.7 31 17.2c8.8 7.5 14.3 14.2 16.7 19.8c2.4 5.7 2.5 12.6 .2 20.9c-2.3 8.3-6.8 16.4-13.5 24.2c-7.5 8.5-15.4 14.4-23.9 17.7c-8.5 3.2-16 3.6-22.6 1.1c-6.7-2.5-14.6-7.7-23.8-15.7l-8.1-7l25.7-29.7l15 13c4.6 4 7.9 6.1 10 6.4c2 .4 3.9-.6 5.8-2.7c1.8-2.1 2.4-4.4 1.6-6.9c-.8-2.5-2.8-5.2-6.1-8c-7.2-6.3-12.8-9.4-16.7-9.3c-4 .1-12.1 1.9-24.2 5.2c-12.1 3.4-20.5 5.3-25.1 5.9c-4.6 .5-9.8-.2-15.4-2.2c-5.7-2-11.8-5.7-18.3-11.4c-9.4-8.2-15.3-15.3-17.6-21.5c-2.2-6.2-2.3-13-.1-20.5c2.2-7.5 6.6-15 13.1-22.6c7.2-8.3 14.7-14.2 22.4-17.7c7.8-3.5 14.5-4.4 20.2-2.8c5.7 1.6 13.5 6.7 23.2 15.1Z" class="g0"/>
<path d="M634 1693.4l-233.5 21.2L692 1736.4Z" class="g3"/>
<path d="M588.7 1658.8l-139.2-21.4l93.5-16.5Z" class="g3"/>
<path d="M2159.7 1518.9c-6.7-94.6-68-172.4-150.9-204.7c.4-.2 .6-.3 .6-.3c0 0-22-15.2-57.9-22.9c5.3 2.7 10.9 6.4 16.5 11.4c2.6 2.3 5.3 4.9 7.9 7.8l-9.3 4.8l-35.6 18.1l-61.7 31.4l33.9-31.5l24-22.3l7.4-6.9c0 0-1.6-2.5-4.8-5.7c-2.8-2.7-6.9-5.9-12.6-8.6c-1.8-.8-3.7-1.5-5.8-2.2c-.7-.2-1.3-.5-2.1-.7c0 0-.1 0-.1 0c19.6-14.4 53.7-45 49.3-80.7c-1.6-12.7-9.2-55.5-9.2-55.5c0 0 31.3 36.1 47.9 61.1c7.9 11.9 10.4 20.6 10 27.2c.8-1.5 1.4-2.9 1.8-4.4c5.9-25.9-21.8-73.8-49.3-114.6c-14.4-21.1-154.5-153.8-179.4-170c-25.1-16.1-34.8-22.2-44.8-13.3c-10.1 8.6-41.4 36-41.4 36c0 0 42.1-14.6 51.5-12c9.7 2.3 161.7 130.8 163.7 133c-5.1-3.7-134.2-74.6-154-72.7l58.3 45.9c18.2 16.4 40.4 35.2 40.7 39.9c.4 6.2-3.4 53.5-16.3 61.7c-1.3 .8-3 1.6-5 2.4c7-8.7 10.5-18 9.5-25.7c-1.5-13-8.9-39.6-14.7-42.3c-2.6-1.1-12.1-6.1-21.8-11.2c-4.7-2.5-9.5-5.1-13.5-7.2c-5.8-3-9.9-5.2-9.9-5.2l-15.7 2.8l-46.3 35.1c-.8-.1-1.9-.2-3-.2c-8.2-17.2-20.6-41-29.3-46.9c-11.2-7.5-145.9-38.3-216-48.5c1.3 29.7 1.9 61.2 6.2 76.5c9.1-.2 29.4 1.1 58.1 16.8c7.8 4.2 18.2 8.5 29.3 12.4c10.3 3.7 21.2 7 31.1 9.7c12.5 3.4 23.4 5.7 29.6 6.4c.5 .1 1 .2 1.4 .2c-.4 0-.9-.1-1.4-.2c9.3-.8 15.3-1.6 15.3-1.6c0 0-.7 2.4-1.8 6.2c-2 7.4-5.5 20-8.1 29.4c.2-.8 .4-1.7 .4-2.7c-.1 .9-.2 1.8-.4 2.7c0 .1 0 .2-.1 .3c-17.2-2.4-57.6-10.5-74.3-13.9c-.6-.1-1.3-.2-2.1-.4c-19.1-4.2-68.1-21.2-68.1-21.2c0 0 61.2 4.9 74.6 5.8c7.1 .4 13.7 .1 18.9-.4c6.5-.6 10.7-1.5 10.7-1.5c0 0-.8-.3-2.1-.8c-.9-.4-2-.8-3.3-1.3c-12-4.6-40.6-15.3-52.4-17.6c-15-2.9-53.5-22.8-55.3-28.3c-9.1 .4-22.8 1.5-37.3 21.5c-12.6 17.1-19.4 42.2-18.8 52.9c-7.6-3.5-16.9-7-23.9-7.6c-6.3-7.8-11.5-14-13.3-16.9c-5.6-9.1-20.5-43-20.5-43c0 0-10.7-21.4-16-32.7c-2.3-4.9-4.6-9.8-6.6-13.7c-2.5-5.1-4.3-8.7-4.3-8.7l10.9-23c-16.7-19.1-57.3-84.9-48.6-120.2c4.9-19.7 7-28.4 8-32.2c-.4-.4-.7-.8-1.1-1.1c-7.8 8.6-39.2 44.8-53.8 84.3c-19.2 52.5-42.4 60.6-63.3 74.4c0 0 51.6 7.6 79.4 11.5c0 0-73.6 6.7-109.8 13.3c-36.1 6.6-53.1 15.4-53.1 15.4l59.1 13.6l-79.4 12.2c0 0-4.5 13.7 33.8 20.5c26 4.6 107 16 162.5 25.5c26.3 4.5 47 8.6 53.2 11.3c19.2 8.3 30 11.7 29.1 26.4c0 0-39.6 8.6-68 16.7c-1.7 .5-3.4 1-5 1.5c-6.3 1.9-11.9 3.7-16 5.4c0 0 4.5-7.9 8.6-16.1c1-2.1 2-4.2 2.9-6.2c1.6-3.8 2.9-7.2 3.2-9.3c.6-4.2-2.7-7.7-6.7-9.8c-3.5-1.8-7.6-2.4-10.2-1.4c-3.9 1.5-11.9 6.7-21.3 10.9c-4.4 2-9 3.8-13.7 4.9c-14.7 3.4-134.3-2.8-159.2-4.6c-30.8-2.2-51.4-8.8-65-15.7c-3.7-1.9-10.8-11-10.5-23.4c.1-3.5 .7-7.2 2.2-11c3.4-6.9 7.6-12.1 12.3-11.5c13.6 1.5 49.7 0 49.7 0c0 0-20.3-19.6-26-28.6c-5.6-9.1 7.9-17 31.6-40.7c23.8-23.8 134.7-117.2 134.7-117.2c0 0-21 10.5-51.2 28.1c-29.8 17.5-68.7 41.9-104.9 69.9c-25.5 19.7-38.4 50.8-46.3 54c-7.9 3.2-18.1 17.2-19.2 34.5c-.3 4.6 .2 9.8 1.1 15c-17.9-17.9-28.1-67.3-57.5-77.1c-30.9-10.2-191.2-1.8-244.8 10c43.6-.5 128.2 6.2 154.3 8.3c32.2 2.5 80.4 3.9 80.4 3.9l-161 11.4l119.7 17.1l-108.3 7.7l382.7 168.5c0 0-437-176-457.1-187.8c-12.2-7.3-21.9-15.9-27.7-21.5c-3.9 8.8 9 28 49 53.6c30 19.1 114 62.1 199.2 104.5c1.5 13.2 1.9 26.2 1.9 26.2v29.7l18.7 3.5l52.8-23.1c44.3 21.7 84.5 41.2 112.1 54.6l-17.2 68.8l-9.9 4.9c-46.6-64.3-124.3-103.8-209.4-97.8c-130.9 9.2-229.5 122.9-220.2 253.8c7.2 102 77.7 184.3 170.4 211.4l-359.5 15.3H1906.3c10.9 .7 21.9 .8 33.1 0c130.9-9.3 229.6-123 220.3-253.9ZM936 1272.3v0l-6.1-40.2c13.6 6.7 27.1 13.4 40.4 19.9Zm942.3 157.1v0l-14.7 6.3l-4.7-10.2l26-16.4l10.3 22.7l5.4 11.7l11 24.2l7.6 16.7l4.5 10l19.8 43.5l1.3 2.8l-42.4 18.2l-.2-2.9l-1.7-24.7l5.6 13.5l21.3-14.2l-17.9-37l-3.2-6.6l-6.7-13.8l-12.4-25.5l-4.9-10.2Zm90 114.9v0c-1.7-23.3-17.7-42.1-38.8-48.5l-5.1-11.5c26 .8 47.7 21.2 49.6 47.8c.8 11.1-2.1 21.7-7.6 30.6c1.6-5.9 2.3-12 1.9-18.4Zm-819.1-118.9v0c.5-.7 1-1.3 1.3-2.3c1.8 .1 4.2 .5 6.9 1c22.1 4.4 71 22 69.7 25.1c-1.7 3.6-17.7 18.6-17.7 18.6l-28.2 5.9l32.5 54.1l15.9 10.3l25.8 16.6c0 0-16.2-4.1-29.5-9.5c-4.2-1.7-8.2-3.6-11.3-5.5c-12.3-7.8-16.1-13.1-19.9-16.2c-2.8-2.3-40.6-32-61.3-47.9c-7.3-5.6-12.5-9.5-13.2-9.7c-7.1-13.7 20.5-29.5 29-40.5Zm505.5-287.1v0l19.7-17.4l3.2-2.9c0 0 1.2 .1 3.1 .3c.3 0 .7 .1 1.1 .1c7.4 .7 23.3 2.7 31.8 6.2c1.8 .8 3.3 1.6 4.3 2.5c.6 .6 1.1 1.3 1.6 2.1c1.3 2.1 2.2 4.8 2.8 7.7c1.8 8.4 1.1 18.1 1.1 18.1c-3-4.3-7.1-8.3-11.1-11.7c-7.5-6.4-14.6-10.7-14.6-10.7l10 13.6v.1c10.1 13.6 8.7 25.5 8.7 25.5c0 0-5.3-6.2-13-15.2c-1.3-1.5-3-3.1-4.9-4.6c-10-7.8-27.8-15.3-43.8-13.7Zm69.1 117.2v0c-4.6 3.6-7.9 6.2-9.1 7.4c-7.6 7.1-259.1 121.2-267.2 126.1c-8.1 5-34.8 53.9-40.8 66.4c-6 12.4 1.6 22.8 1.6 22.8c8.1 15.7 96.6 80.7 96.6 80.7c0 0-139.8-62.3-144.5-67.4c-4.8-5.2 9.6-33.5 21.2-55.1c11.6-21.7 36.6-70.5 43.8-77.9c7.1-7.5 241.6-94.4 255.5-98.7c2.9-.9 9.6-4 18.5-8.4c3.6-1.9 7.7-3.9 12-6.1c36.4-18.7 90.9-48.6 90.9-48.6c0 0-44.5 32.8-70.3 52.5c-3 2.3-5.8 4.4-8.2 6.3Zm-540.9 341v0h62.7l56.5 39.2l-104.2-19.6l-17.6-19.6Zm383.5 19.6v0l50.3 42.7H1308.8Zm37.9-88.3v0c0 0-63.6-42.8-73.3-48.3c-9.6-5.5-78.7-23.2-78.7-23.2c0 0 42.1-.9 55.3-1.9c13.3-.9 60.4-4.2 65.3-7.7c4.9-3.4 112.1-68.9 112.1-68.9l-106.1 110.7Zm26.7-347v0c-.1 .4-.2 .8-.3 1.1c.1-.3 .2-.7 .3-1.1Zm-193.7-1.3v0c10.6 1.7 63.1-6 91.2-6c3 0 6 0 8.9 .1c25.3 .2 46.8 1.2 46.8 1.2c0 0-22 2.6-51.1 7.8c-7.4 1.4-15 3.5-22.2 6c-5 1.6-9.8 3.4-14.3 5.3c-.6 .2-1.2 .5-1.8 .7c-11.4-1.6-20.9-3.9-27.1-6.2c-.3-.1-.6-.2-.9-.3c-16-3.9-27.9-7.9-29.8-8.6Zm-181.5 39.4v0c5.5-1.7 22-4.7 40.6-4.4c2.5 0 5.1 .1 7.6 .3c11.8 .7 24 2.9 34.6 7.6c6.5 3 13.6 6.6 20.9 10.7c-15.5-4-46.4-9.1-51.8-9.9c-.5-.1-.9-.2-.9-.2c0 0 .5 .3 1.2 .8c4.7 3.2 23.7 15.9 37.2 24.5c5.4 3.4 9.9 6.2 12.2 7.5c2.5 1.4 3.8 4.6 4.4 8.5c.2 1.9 .3 3.9 .3 6c0 3-.2 6-.5 8.9c-.1 .7-.2 1.3-.3 2c-.8 5.9-1.9 10.5-1.9 10.5l-12.2-8.5l-1-.7l-2.9-2l-14.8-10.2l-10.3-7.1h-.1l-28.5 40l37.6 35.6c-3.6-.6-60.2-12.6-75.9-15.5c-16-3.1-21.6-.1-21.6-.1c0 0 25.5 30.3 30.1 34.3c4.7 4-4.4 15.8-4.4 15.8l-17 51.5c0 0-27.2-12.1-43.9-17.1c-5.6-1.8-15-4.5-22.8-5.4c6.6-13.6 13.3-24.3 17.6-36.1c1-2.7 2-5.5 2.7-8.4c7.6-30.4 17.6-54 27-71.6l-14.3 66c0 0 45-79.6 57.3-87.8c12.3-8.1 35.2-18.6 35.4-18.6c-2.4-1.1-5.2-1.9-8-2.3c-15.7-2.7-36.2 2.2-42.5 2.3c-1.7-5.7-2.2-10.1-1.9-13.8c.3-3.8 1.7-6.7 3.7-8.9c1.9-1.9 4.2-3.3 7.1-4.2Zm-149 187.6v0l25.9-54.3v60l-26.9 18.3l-6.2 2.1l-12 4l-18.5 6.2l-38.8 13.1l-73.6 24.7l-77.6 26l73.2-32.2l71-31.1l36.7-16.2l18.6-8.2l11.6-5.1ZM658.9 1552.3v0c-.3-2.4-.7-4.7-.9-7.1c-8.8-124 84.6-231.6 208.6-240.4c79.8-5.6 152.7 31 197 90.9l-19.5 9.6c-43.3-52.3-110.3-83.7-183.2-78.5c-117.6 8.3-206.5 108.6-202 225.5Zm59-11.3v0c-6.4-90.9 62.1-169.8 153-176.2c54.5-3.9 104.7 19.2 137.6 58l-72.7 35.6c-16.5-12.4-37.3-19.2-59.5-17.6c-49 3.4-85.8 45.9-82.4 94.8c3.5 48.9 46 85.8 94.9 82.3c30.1-2.1 55.6-19 69.9-43.1l80 7.8c-20.7 60.9-76.3 106.5-144.5 111.3c-90.9 6.5-169.8-62-176.3-152.9Zm250.3 210v0c54.6-21 99.1-61.6 125.5-112.5c-5.5 18.3-27.5 62.9-27.5 62.9l606.6-8.3c0 0 15.3-23.4 12.2-40.3c-3.7-20.6-20.1-56.3-19-88.5c1.7-46.6 12.6-75.9 28.8-100.6h1.4c-8.9 27.9-12.8 57.8-10.6 88.8c4.7 66.5 36.4 124.6 83.5 164.6Zm966.1-50.7v0c-90.9 6.4-169.8-62.1-176.2-152.9c-2.4-33.2 5.3-64.8 20.3-91.8l38.9-14.2l33 33c-15.5 18.2-24.1 42.2-22.3 68c3.7 52.3 49.1 91.6 101.3 87.9c52.3-3.7 91.7-49 88-101.3c-3.6-51.2-47.3-90-98.3-88c-4.1-20.5-9.8-49.8-10.5-59.5c-.2-3.9 .4-7.3 1.7-10.3c.3 0 .5-.1 .8-.1c90.9-6.4 169.8 62.1 176.2 153c6.5 90.8-62 169.7-152.9 176.2Zm124.8 14.3v0c49.8-43.4 79.6-108.6 74.5-179.6c-7-98.9-79-177.6-171.3-197.5c10.6-5.3 22-11 31-15.5c84 27.8 147.2 104 153.9 197.8c5.5 78.5-29.9 150.3-88.1 194.8Z" class="g4"/>
<path d="M1490.3 835.1c0 0 4.8-11.9 4.4-15.8c-.4-3.8-9.3-5.3-12.2-5.7c-3-.5-5.3 2.7-5.3 2.7c4.1 1.4 7.3 5.1 8.5 8c1.2 3 4.6 10.8 4.6 10.8Z" class="g4"/>
<path d="M1362.1 872.3c10.5 5 20.5 10 26.9 13.8c3 1.8 5.3 3.2 6.4 4.3q.1 .1 .2 .2c.2 .2 .4 .5 .7 .8c.3 .5 .7 1.1 1.1 1.7c5.5 9.6 15.3 38.4 21.3 57.2c3 9.4 5.1 16.2 5.3 16.8q.1 .1 .1 .1c-.2-.2-14.6-21.8-26-39.3c0 0-.1 0-.1 0c-4.4-6.8-13-14.2-22-20.8c-14.3-10.5-29.4-18.8-29.5-18.9c3.6 7.7 8.5 19.4 12.8 33.4c7.8 25.1 11.6 66.5 4 82.2c-7.7 15.8-9.7 29.6-9.2 38.8c0 0 3.9-8.1 10.6-17.6c42-35.8 60.3-24.5 67-21.9c-12.7 .8-26.5 4-34.5 12.8c-5 5.5-9.3 12.5-12.9 19.7c-5.2 10.4-9.1 21.2-11.5 28.8c8.4-8.9 20.7-20.8 29.9-24.2c0 0 4.6 28.6 2.6 40c-1.8 10.2 16.8 40.1 20.9 46.4c3.7-6.1 7-11.7 8.6-14.8c13.7-26.4 21.3-69.6 24.5-92.2c1.2-8.4 1.8-13.9 1.9-14.9c1.1-5.9 2.9-11.7 6.4-18.3c.5-1 1.2-2 1.9-3.1c7-10.9 23.4-29.8 30.5-37.8c21.3 12.7 51.1 26.6 62.7 28.4c16.4 2.5 28.6-4.6 39.2-11.4c10.7-6.8 16.8-16.7 16.8-20.6c.1-4-2.4-13.1-2.4-13.1c0 0 9.7-23.3 13.8-62.7l-30.5-16.9l31.5 6c0 0 5.7 .5 5.3-9.8c-.3-10.2-3.8-28.7-16.6-50.2c-12.7-21.4-74.1-60-129.4-40.9c-12.4 4.3-22.4 9.5-30.8 15.3c21.5-6.9 59.4-16.2 84.4-7.2c36.6 13.2 46.7 34.4 52.1 47.4c0 0-29.5-22.1-65.3-21.7c0 0 38.7 23.9 46.3 47c0 0-42.9-6.8-50.9-7.4c-8.1-.7-11.7 6.5-12.5 10.2c-.7 3.7 15.6 54.2 24.9 64.6c9.3 10.4 47.6 31.8 47.6 31.8c0 0-51.6-8.2-82.5-24.5c-31-16.4-71.2-63.1-74.9-67.4c-3.6-4.3-.8-16-.5-37.2c-4.9 10.1-7.4 19.8-9 27.7c-1.9 9-.6 22.4 6.4 34.6c1.3 2.2 3.5 5.2 6.2 8.8c-7.1-4.7-12.2-10.4-16.7-16.6c-18.1-24.6-13-29.3-30.1-25.9c-12.8 2.5-39.1 8.9-59 21.8c.4 .2 .8 .3 1.2 .5c8.6 3.9 22.1 10.1 34.8 16.2Z" class="g4"/>

</g>
</svg>
